# xmcd CD database file
#
# Track frame offsets:
#	150
#	21183
#	39848
#	54040
#	65631
#	84874
#	102807
#
# Disc length: 1562 seconds
#
# Revision: 0
# Processed by: cddbd v1.5.1PL0 Copyright (c) Steve Scherf et al.
# Submitted via: CDex 1.51
#
DISCID=45061807
DTITLE=Katherine Dawn - Sugar Bowl Blues
DYEAR=2004
DGENRE=Country
TTITLE0=Sugar Bowl Blues
TTITLE1=Suzie Sunshine
TTITLE2=All Damn Day
TTITLE3=It's Alright
TTITLE4=Downtown Girl
TTITLE5=High In The Country
TTITLE6=Old No. 9
EXTD=YEAR: 2004
EXTT0=
EXTT1=
EXTT2=
EXTT3=
EXTT4=
EXTT5=
EXTT6=
PLAYORDER=
